# xmcd
#
# Track frame offsets:
#	150
#	13220
#	30028
#	57733
#	77226
#	100649
#	117068
#	141778
#	159364
#	175336
#	189951
#	215756
#	232418
#	252314
#	272603
#	291520
#	315305
#	333852
#
# Disc length: 4761 seconds
#
# Revision: 1
# Processed by: cddbd v1.5.2PL0 Copyright (c) Steve Scherf et al.
# Submitted via: audiograbber 1.83.01
#
DISCID=fd129712
DTITLE=Moody Blues - Collected CD2
DYEAR=2007
DGENRE=Blues
TTITLE0=Moody Blues - The Story in your Eyes (1971)
TTITLE1=Moody Blues - Emily's Song (1971)
TTITLE2=Moody Blues - Isn't Life Strange (1972)
TTITLE3=Moody Blues - I'm Just a Singer (in a Rock and Roll Band) (1972)
TTITLE4=Moody Blues - New Horizons (1972)
TTITLE5=Justin Hayward and John Lodge - Blue Guitar (1974)
TTITLE6=Justin Hayward and John Lodge - Remember Me (My Friend) (1975)
TTITLE7=Moody Blues - King and Queen (1977)
TTITLE8=Moody Blues - What Am I Doing Here (1977)
TTITLE9=Justin Hayward - Raised On Love (1977)
TTITLE10=John Lodge - Carry Me (1977)
TTITLE11=Moody Blues - Had to Fall in Love (1978)
TTITLE12=Moody Blues - Driftwood (1978)
TTITLE13=Jeff Wayne and Justin Hayward - Forever Autumn (1978)
TTITLE14=Justin Hayward - It's Not On (1980)
TTITLE15=Moody Blues - The Voice (1981)
TTITLE16=Moody Blues - Gemini Dream (1981)
TTITLE17=Moody Blues - Blue World (1983)
EXTD=Correct artist names supplied.\nTrack dates supplied.
EXTT0=
EXTT1=
EXTT2=
EXTT3=
EXTT4=
EXTT5=
EXTT6=
EXTT7=
EXTT8=
EXTT9=
EXTT10=
EXTT11=
EXTT12=
EXTT13=
EXTT14=
EXTT15=
EXTT16=
EXTT17=
PLAYORDER=
